<svg version="1.1" xmlns="http://www.w3.org/2000/svg" xmlns:xlink="http://www.w3.org/1999/xlink" x="0px" y="0px" viewBox="0 0 101.54 97.48" style="overflow:visible;enable-background:new 0 0 101.54 97.48;" xml:space="preserve">
  <style type="text/css">
    .st0{fill:url(#SVGID_1_);}
    .st1{fill:url(#SVGID_2_);}
  </style>
  <g>
    <linearGradient id="SVGID_1_" gradientUnits="userSpaceOnUse" x1="9.2141" y1="24.685" x2="95.3673" y2="74.4256">
    <stop  offset="0" style="stop-color:#B077B0"/>      
    <stop  offset="0.6023" style="stop-color:#5E96A3"/> 
    <stop  offset="1" style="stop-color:#35B597"/>      
    </linearGradient>
    <path class="st0" d="M101.54,48.75c0,9.11-2.04,18.4-6.3,25.75c-4.39,7.59-11.23,14.52-18.81,18.92 c-7.36,4.26-16.68,4.06-25.79,4.06c-9.11,0-18.34,0.03-25.69-4.22c-7.59-4.39-12.38-12.4-16.77-19.99C3.92,65.91,0,57.86,0,48.75 c0-9.11,2.16-18.18,6.41-25.53C10.8,15.63,17.67,9.18,25.26,4.79C32.61,0.53,41.53,0,50.64,0c9.11,0,18.47-0.24,25.83,4.02 C84.05,8.41,88.11,17,92.5,24.59C96.76,31.94,101.54,39.65,101.54,48.75z">
      <animate
        attributeName="d"
        repeatCount="indefinite"
        dur="4s"
        values="
          M101.54,48.75c0,9.11-2.04,18.4-6.3,25.75c-4.39,7.59-11.23,14.52-18.81,18.92 c-7.36,4.26-16.68,4.06-25.79,4.06c-9.11,0-18.34,0.03-25.69-4.22c-7.59-4.39-12.38-12.4-16.77-19.99C3.92,65.91,0,57.86,0,48.75 c0-9.11,2.16-18.18,6.41-25.53C10.8,15.63,17.67,9.18,25.26,4.79C32.61,0.53,41.53,0,50.64,0c9.11,0,18.47-0.24,25.83,4.02 C84.05,8.41,88.11,17,92.5,24.59C96.76,31.94,101.54,39.65,101.54,48.75z;
          M98.88,48.99c0,9.11-3.86,16.48-8.11,23.84c-4.39,7.59-8.32,15.75-15.9,20.14 c-7.36,4.26-16.28,4.61-25.39,4.61c-9.11,0-17.48-1.32-24.84-5.57C17.05,87.62,9.09,82.43,4.7,74.85C0.44,67.49,0,58.1,0,48.99 c0-9.11,3.85-16.52,8.11-23.88c4.39-7.59,8.19-16.05,15.78-20.44C31.24,0.42,40.36,0,49.47,0c9.11,0,16.44,3.51,23.8,7.77 c7.59,4.39,15.63,8.34,20.02,15.93C97.55,31.05,98.88,39.89,98.88,48.99z;
          M99.75,49.57c0,9.11-1.63,17.26-5.89,24.62c-4.39,7.59-9.7,14.9-17.29,19.29c-7.36,4.26-16.24,3.76-25.35,3.76 c-9.11,0-17.1-1.06-24.45-5.31c-7.59-4.39-13.76-10.17-18.15-17.76C4.37,66.81,0,58.68,0,49.57c0-9.11,4.85-16.96,9.11-24.31 c4.39-7.59,8.64-16.13,16.23-20.52C32.69,0.48,42.11,0,51.22,0c9.11,0,17.95,1.49,25.3,5.75c7.59,4.39,12.69,11.77,17.08,19.35 C97.86,32.46,99.75,40.46,99.75,49.57z;
          M101.54,48.75c0,9.11-2.04,18.4-6.3,25.75c-4.39,7.59-11.23,14.52-18.81,18.92 c-7.36,4.26-16.68,4.06-25.79,4.06c-9.11,0-18.34,0.03-25.69-4.22c-7.59-4.39-12.38-12.4-16.77-19.99C3.92,65.91,0,57.86,0,48.75 c0-9.11,2.16-18.18,6.41-25.53C10.8,15.63,17.67,9.18,25.26,4.79C32.61,0.53,41.53,0,50.64,0c9.11,0,18.47-0.24,25.83,4.02 C84.05,8.41,88.11,17,92.5,24.59C96.76,31.94,101.54,39.65,101.54,48.75z
        "
        fill="freeze"
      />
    </path>
  </g>
</svg>
