<svg xmlns="http://www.w3.org/2000/svg" width="40.472" height="40" viewBox="0 0 40.472 40"><g transform="translate(37.994 10.758)"><path d="M350.26,183.354a18.476,18.476,0,0,0,0-18.484Z" transform="translate(-350.26 -164.87)" fill="#37a884"/></g><g transform="translate(21.112)"><path d="M316.239,142.234a18.474,18.474,0,0,0-16.007-9.242Z" transform="translate(-300.232 -132.992)" fill="#9962a2"/></g><g transform="translate(3.353)"><path d="M263.617,132.992a18.474,18.474,0,0,0-16.007,9.242Z" transform="translate(-247.61 -132.992)" fill="#37a884"/></g><g transform="translate(0 10.758)"><path d="M240.151,164.871a18.473,18.473,0,0,0,0,18.484Z" transform="translate(-237.673 -164.871)" fill="#9962a2"/></g><g transform="translate(3.353 30.758)"><path d="M247.61,224.135a18.475,18.475,0,0,0,16.007,9.242Z" transform="translate(-247.61 -224.135)" fill="#37a884"/></g><g transform="translate(21.112 30.758)"><path d="M300.232,233.377a18.474,18.474,0,0,0,16.007-9.242Z" transform="translate(-300.232 -224.135)" fill="#9962a2"/></g><g transform="translate(7.573 7.485)"><g transform="translate(23.775 6.732)"><path d="M330.566,186.686a11.561,11.561,0,0,0,0-11.566Z" transform="translate(-330.566 -175.12)" fill="#9962a2"/></g><g transform="translate(13.21)"><path d="M309.278,160.955a11.56,11.56,0,0,0-10.017-5.783Z" transform="translate(-299.261 -155.172)" fill="#37a884"/></g><g transform="translate(2.098)"><path d="M276.35,155.172a11.56,11.56,0,0,0-10.017,5.783Z" transform="translate(-266.333 -155.172)" fill="#9962a2"/></g><g transform="translate(0 6.732)"><path d="M261.666,175.12a11.559,11.559,0,0,0,0,11.566Z" transform="translate(-260.115 -175.12)" fill="#37a884"/></g><g transform="translate(2.098 19.247)"><path d="M266.333,212.2a11.56,11.56,0,0,0,10.017,5.783Z" transform="translate(-266.333 -212.205)" fill="#9962a2"/></g><g transform="translate(13.21 19.247)"><path d="M299.261,217.988a11.56,11.56,0,0,0,10.017-5.783Z" transform="translate(-299.261 -212.205)" fill="#37a884"/></g><g transform="translate(23.775 6.732)"><path d="M330.566,186.686a11.561,11.561,0,0,0,0-11.566Z" transform="translate(-330.566 -175.12)" fill="#9962a2"/></g><g transform="translate(13.21)"><path d="M309.278,160.955a11.56,11.56,0,0,0-10.017-5.783Z" transform="translate(-299.261 -155.172)" fill="#37a884"/></g><g transform="translate(2.098)"><path d="M276.35,155.172a11.56,11.56,0,0,0-10.017,5.783Z" transform="translate(-266.333 -155.172)" fill="#9962a2"/></g><g transform="translate(0 6.732)"><path d="M261.666,175.12a11.559,11.559,0,0,0,0,11.566Z" transform="translate(-260.115 -175.12)" fill="#37a884"/></g><g transform="translate(2.098 19.247)"><path d="M266.333,212.2a11.56,11.56,0,0,0,10.017,5.783Z" transform="translate(-266.333 -212.205)" fill="#9962a2"/></g><g transform="translate(13.21 19.247)"><path d="M299.261,217.988a11.56,11.56,0,0,0,10.017-5.783Z" transform="translate(-299.261 -212.205)" fill="#37a884"/></g></g></svg>