<svg xmlns="http://www.w3.org/2000/svg" width="385" height="450" viewBox="0 0 385 450"><g transform="translate(-420 -6302)"><path d="M-5675,450h-365a10.011,10.011,0,0,1-10-10V370h0a9.929,9.929,0,0,0,7.066-2.927A9.935,9.935,0,0,0-6040,360a10.011,10.011,0,0,0-10-10V10a10.011,10.011,0,0,1,10-10h365a10.011,10.011,0,0,1,10,10V350a10.011,10.011,0,0,0-10,10,10.011,10.011,0,0,0,10,10v70a9.936,9.936,0,0,1-2.928,7.071A9.935,9.935,0,0,1-5675,450Z" transform="translate(6470 6302)" fill="#fff"/><line x2="365" transform="translate(430.5 6662.5)" fill="none" stroke="#bcbcbc" stroke-linecap="round" stroke-width="1" stroke-dasharray="3"/><path d="M4.953-11.812v1.586a2.38,2.38,0,0,0-1.336-.531A1.342,1.342,0,0,0,2.57-10.3a1.6,1.6,0,0,0-.406,1.148A1.977,1.977,0,0,0,2.453-8.07a4.8,4.8,0,0,0,.488.625q.34.383.879.922A7.22,7.22,0,0,1,5.172-4.781a3.832,3.832,0,0,1,.359,1.742,3.383,3.383,0,0,1-.789,2.3A2.591,2.591,0,0,1,2.719.148,2.8,2.8,0,0,1,.945-.422V-2.031A2.765,2.765,0,0,0,2.523-1.4,1.29,1.29,0,0,0,3.563-1.84a1.792,1.792,0,0,0,.375-1.2,2.4,2.4,0,0,0-.289-1.18,4.819,4.819,0,0,0-.414-.574q-.266-.324-.664-.723-.617-.609-1.023-1.078a5.086,5.086,0,0,1-.6-.82A3.593,3.593,0,0,1,.57-9.148,3.258,3.258,0,0,1,1.3-11.391,2.531,2.531,0,0,1,3.3-12.227,3.517,3.517,0,0,1,4.953-11.812Zm1.945-.25H8.492v8.523A4.182,4.182,0,0,0,8.727-1.8a1,1,0,0,0,.953.43,1.012,1.012,0,0,0,.938-.375A3.388,3.388,0,0,0,10.852-3.3v-8.758h1.594V-3.3a4.24,4.24,0,0,1-.6,2.664,2.826,2.826,0,0,1-2.2.789A2.526,2.526,0,0,1,7.359-.867,5.3,5.3,0,0,1,6.9-3.539ZM17.2-6.344h2.953v.469a12.159,12.159,0,0,1-.617,4.758A2.294,2.294,0,0,1,17.25.148a2.557,2.557,0,0,1-2.461-1.406,11.075,11.075,0,0,1-.727-4.727q0-3.8.8-5.055a2.54,2.54,0,0,1,2.3-1.18,2.753,2.753,0,0,1,1.852.57,3.828,3.828,0,0,1,1.047,1.9l-1.516.633a5.378,5.378,0,0,0-.227-.8,1.828,1.828,0,0,0-.273-.5,1.077,1.077,0,0,0-.891-.367q-.812,0-1.109,1a15.914,15.914,0,0,0-.3,3.758,14.663,14.663,0,0,0,.3,3.711,1.169,1.169,0,0,0,1.148.969,1.1,1.1,0,0,0,1.086-.687,6.34,6.34,0,0,0,.32-2.359v-.57H17.2Zm6.289-5.719H24.75L27.336,0H25.727l-.453-2.352H22.883L22.422,0H20.859Zm1.555,8.453L24.68-5.531q-.359-1.961-.586-4.187-.109,1.086-.281,2.2t-.406,2.363l-.3,1.547Zm3.25-8.453H30.43a2.731,2.731,0,0,1,1.977.633,3.413,3.413,0,0,1,.82,2.508,4.3,4.3,0,0,1-.434,2.082,1.859,1.859,0,0,1-1.238.973L33.773,0H32.125L29.914-5.906V0H28.289Zm1.625,5.344a1.723,1.723,0,0,0,1.336-.437,2.21,2.21,0,0,0,.391-1.477,4.84,4.84,0,0,0-.082-.961,1.724,1.724,0,0,0-.258-.648,1.038,1.038,0,0,0-.453-.367,1.69,1.69,0,0,0-.66-.117h-.273Z" transform="translate(440 6719)" fill="#bcbcbc"/><path d="M.93-12.062H3.07a2.889,2.889,0,0,1,2.25.781,3.694,3.694,0,0,1,.7,2.5q0,2.406-1.414,3.109a5.177,5.177,0,0,1-2.055.32V0H.93Zm1.625,5.32a1.879,1.879,0,0,0,1.391-.406,2.14,2.14,0,0,0,.391-1.469A2.647,2.647,0,0,0,3.961-10.2a1.378,1.378,0,0,0-1.18-.5H2.555Zm4.719-5.32h4.32v1.375H8.9v3.82h2.391v1.375H8.9v4.117h2.7V0H7.273Zm5.813,0h2.141a2.889,2.889,0,0,1,2.25.781,3.694,3.694,0,0,1,.7,2.5q0,2.406-1.414,3.109a5.177,5.177,0,0,1-2.055.32V0H13.086Zm1.625,5.32A1.879,1.879,0,0,0,16.1-7.148a2.14,2.14,0,0,0,.391-1.469,2.647,2.647,0,0,0-.375-1.578,1.378,1.378,0,0,0-1.18-.5h-.227Zm4.719-5.32H21.57a2.889,2.889,0,0,1,2.25.781,3.694,3.694,0,0,1,.7,2.5q0,2.406-1.414,3.109a5.177,5.177,0,0,1-2.055.32V0H19.43Zm1.625,5.32a1.879,1.879,0,0,0,1.391-.406,2.14,2.14,0,0,0,.391-1.469,2.647,2.647,0,0,0-.375-1.578,1.378,1.378,0,0,0-1.18-.5h-.227Zm4.719-5.32h4.32v1.375H27.4v3.82h2.391v1.375H27.4v4.117h2.7V0h-4.32Zm5.813,0h2.141a2.731,2.731,0,0,1,1.977.633,3.413,3.413,0,0,1,.82,2.508A4.3,4.3,0,0,1,36.09-6.84a1.859,1.859,0,0,1-1.238.973L37.07,0H35.422L33.211-5.906V0H31.586Zm1.625,5.344a1.723,1.723,0,0,0,1.336-.437,2.21,2.21,0,0,0,.391-1.477,4.84,4.84,0,0,0-.082-.961,1.724,1.724,0,0,0-.258-.648,1.039,1.039,0,0,0-.453-.367,1.69,1.69,0,0,0-.66-.117h-.273Z" transform="translate(532 6719)" fill="#bcbcbc"/><path d="M-6047.714,33.051-6054,34l4.629-3.683a50.58,50.58,0,0,1-1.477-12.7L-6060,19.222l9.186-5.529c.246-7.768,1.541-13.693,3.1-13.693,1.583,0,2.894,6.1,3.112,14.045l8.6,5.178-8.581-1.507a50.315,50.315,0,0,1-1.477,12.6l4.629,3.682Z" transform="translate(520 12760) rotate(90)" fill="#b077b0"/><g transform="translate(32 11)"><g transform="translate(0.5 -12)"><line y2="45" transform="translate(674.5 6685.5)" fill="none" stroke="#9b9a9a" stroke-width="1"/><line y2="45" transform="translate(678.5 6685.5)" fill="none" stroke="#9b9a9a" stroke-width="3"/><line y2="45" transform="translate(682.5 6685.5)" fill="none" stroke="#9b9a9a" stroke-width="1"/><line y2="45" transform="translate(686.5 6685.5)" fill="none" stroke="#9b9a9a" stroke-width="2"/><line y2="45" transform="translate(690.5 6685.5)" fill="none" stroke="#9b9a9a" stroke-width="1"/><line y2="45" transform="translate(694.5 6685.5)" fill="none" stroke="#9b9a9a" stroke-width="1"/><line y2="45" transform="translate(698.5 6685.5)" fill="none" stroke="#9b9a9a" stroke-width="5"/><line y2="45" transform="translate(702.5 6685.5)" fill="none" stroke="#9b9a9a" stroke-width="1"/><line y2="45" transform="translate(706.5 6685.5)" fill="none" stroke="#9b9a9a" stroke-width="2"/><line y2="45" transform="translate(710.5 6685.5)" fill="none" stroke="#9b9a9a" stroke-width="3"/><line y2="45" transform="translate(714.5 6685.5)" fill="none" stroke="#9b9a9a" stroke-width="1"/><line y2="45" transform="translate(718.5 6685.5)" fill="none" stroke="#9b9a9a" stroke-width="1"/><line y2="45" transform="translate(722.5 6685.5)" fill="none" stroke="#9b9a9a" stroke-width="3"/><line y2="45" transform="translate(726.5 6685.5)" fill="none" stroke="#9b9a9a" stroke-width="2"/><line y2="45" transform="translate(730.5 6685.5)" fill="none" stroke="#9b9a9a" stroke-width="1"/><line y2="45" transform="translate(734.5 6685.5)" fill="none" stroke="#9b9a9a" stroke-width="1"/><line y2="45" transform="translate(738.5 6685.5)" fill="none" stroke="#9b9a9a" stroke-width="4"/><line y2="45" transform="translate(742.5 6685.5)" fill="none" stroke="#9b9a9a" stroke-width="3"/><line y2="45" transform="translate(746.5 6685.5)" fill="none" stroke="#9b9a9a" stroke-width="1"/><line y2="45" transform="translate(750.5 6685.5)" fill="none" stroke="#9b9a9a" stroke-width="5"/></g><path d="M.885-3.053h-.6L.281-3.231A1.819,1.819,0,0,1,.5-4.274a.879.879,0,0,1,.756-.3q1,0,1,1.107a5.177,5.177,0,0,1-.747,2.153l-.36.677-.018.035-.041.085H2.212V0H.226q.05-.111.208-.442t.431-.894q.231-.492.387-.835t.234-.562a2.3,2.3,0,0,0,.158-.759q0-.562-.39-.562t-.375.7l0,.258Zm6.744.826A4.764,4.764,0,0,1,7.395-.469a.8.8,0,0,1-.788.521.809.809,0,0,1-.791-.524,4.8,4.8,0,0,1-.231-1.79,4.8,4.8,0,0,1,.231-1.79A.8.8,0,0,1,6.6-4.579a.809.809,0,0,1,.762.463A4.514,4.514,0,0,1,7.629-2.227Zm-.621,0A7.586,7.586,0,0,0,6.92-3.645q-.088-.39-.319-.39t-.322.387a7.323,7.323,0,0,0-.088,1.392A7.374,7.374,0,0,0,6.278-.861q.091.387.322.387t.316-.384A6.729,6.729,0,0,0,7.008-2.227Zm4.606-.826h-.6l-.006-.179a1.819,1.819,0,0,1,.223-1.043.879.879,0,0,1,.756-.3q1,0,1,1.107a5.177,5.177,0,0,1-.747,2.153l-.36.677-.018.035-.041.085h1.119V0H10.954q.05-.111.208-.442t.431-.894q.231-.492.387-.835t.234-.562a2.3,2.3,0,0,0,.158-.759q0-.562-.39-.562t-.375.7l0,.258Zm4.822-1.471h1.031V0h-.583V-4h-.448Zm6.788,2.3A4.764,4.764,0,0,1,22.99-.469.8.8,0,0,1,22.2.053a.809.809,0,0,1-.791-.524,4.8,4.8,0,0,1-.231-1.79,4.8,4.8,0,0,1,.231-1.79.8.8,0,0,1,.788-.527.809.809,0,0,1,.762.463A4.514,4.514,0,0,1,23.224-2.227Zm-.621,0a7.586,7.586,0,0,0-.088-1.418q-.088-.39-.319-.39t-.322.387a7.323,7.323,0,0,0-.088,1.392,7.374,7.374,0,0,0,.088,1.395q.091.387.322.387t.316-.384A6.729,6.729,0,0,0,22.6-2.227Zm3.885-2.3h2.021L27.138,0h-.65l1.257-4.008H26.488Zm7.339,2.3a4.764,4.764,0,0,1-.234,1.758A.8.8,0,0,1,32.8.053a.809.809,0,0,1-.791-.524,4.8,4.8,0,0,1-.231-1.79,4.8,4.8,0,0,1,.231-1.79.8.8,0,0,1,.788-.527.809.809,0,0,1,.762.463A4.514,4.514,0,0,1,33.827-2.227Zm-.621,0a7.586,7.586,0,0,0-.088-1.418q-.088-.39-.319-.39t-.322.387a7.323,7.323,0,0,0-.088,1.392,7.374,7.374,0,0,0,.088,1.395q.091.387.322.387t.316-.384A6.729,6.729,0,0,0,33.206-2.227Zm4.629-1.084h-.58v-.12a2.281,2.281,0,0,1,.051-.519.915.915,0,0,1,.161-.357.643.643,0,0,1,.28-.207,1.126,1.126,0,0,1,.407-.066.882.882,0,0,1,.727.281,1.413,1.413,0,0,1,.229.894A1.821,1.821,0,0,1,39-2.678a.686.686,0,0,1-.4.343A.73.73,0,0,1,39.045-2a1.623,1.623,0,0,1,.12.724,1.6,1.6,0,0,1-.258,1,.966.966,0,0,1-.8.322q-.932,0-.932-1.069V-1.1a.17.17,0,0,1,0-.041h.571q0,.05,0,.086t0,.06a.61.61,0,0,0,.1.369.325.325,0,0,0,.277.138.391.391,0,0,0,.195-.045.335.335,0,0,0,.132-.146.858.858,0,0,0,.075-.262,2.76,2.76,0,0,0,.023-.39,1.083,1.083,0,0,0-.125-.595A.466.466,0,0,0,38-2.1a.617.617,0,0,0-.07,0l-.088.01v-.527h.085a.6.6,0,0,0,.48-.152.948.948,0,0,0,.126-.577q0-.7-.354-.7t-.352.6Z" transform="translate(697 6727)" fill="#bcbcbc"/></g><g transform="translate(440 6322)"><g transform="translate(19.472 5.513)"><path d="M350.26,174.343a9.469,9.469,0,0,0,0-9.473Z" transform="translate(-350.26 -164.87)" fill="#37a884"/></g><g transform="translate(10.82)"><path d="M308.436,137.728a9.468,9.468,0,0,0-8.2-4.736Z" transform="translate(-300.232 -132.992)" fill="#9962a2"/></g><g transform="translate(1.719)"><path d="M255.814,132.992a9.468,9.468,0,0,0-8.2,4.736Z" transform="translate(-247.61 -132.992)" fill="#37a884"/></g><g transform="translate(0 5.514)"><path d="M238.943,164.871a9.467,9.467,0,0,0,0,9.473Z" transform="translate(-237.673 -164.871)" fill="#9962a2"/></g><g transform="translate(1.719 15.763)"><path d="M247.61,224.135a9.469,9.469,0,0,0,8.2,4.737Z" transform="translate(-247.61 -224.135)" fill="#37a884"/></g><g transform="translate(10.82 15.763)"><path d="M300.232,228.871a9.468,9.468,0,0,0,8.2-4.736Z" transform="translate(-300.232 -224.135)" fill="#9962a2"/></g><g transform="translate(3.881 3.836)"><g transform="translate(12.185 3.45)"><path d="M330.566,181.048a5.925,5.925,0,0,0,0-5.928Z" transform="translate(-330.566 -175.12)" fill="#9962a2"/></g><g transform="translate(6.77)"><path d="M304.394,158.136a5.924,5.924,0,0,0-5.134-2.964Z" transform="translate(-299.261 -155.172)" fill="#37a884"/></g><g transform="translate(1.075)"><path d="M271.467,155.172a5.924,5.924,0,0,0-5.134,2.964Z" transform="translate(-266.333 -155.172)" fill="#9962a2"/></g><g transform="translate(0 3.45)"><path d="M260.91,175.12a5.924,5.924,0,0,0,0,5.928Z" transform="translate(-260.115 -175.12)" fill="#37a884"/></g><g transform="translate(1.075 9.864)"><path d="M266.333,212.2a5.925,5.925,0,0,0,5.134,2.964Z" transform="translate(-266.333 -212.205)" fill="#9962a2"/></g><g transform="translate(6.77 9.864)"><path d="M299.261,215.169a5.925,5.925,0,0,0,5.134-2.964Z" transform="translate(-299.261 -212.205)" fill="#37a884"/></g><g transform="translate(12.185 3.45)"><path d="M330.566,181.048a5.925,5.925,0,0,0,0-5.928Z" transform="translate(-330.566 -175.12)" fill="#9962a2"/></g><g transform="translate(6.77)"><path d="M304.394,158.136a5.924,5.924,0,0,0-5.134-2.964Z" transform="translate(-299.261 -155.172)" fill="#37a884"/></g><g transform="translate(1.075)"><path d="M271.467,155.172a5.924,5.924,0,0,0-5.134,2.964Z" transform="translate(-266.333 -155.172)" fill="#9962a2"/></g><g transform="translate(0 3.45)"><path d="M260.91,175.12a5.924,5.924,0,0,0,0,5.928Z" transform="translate(-260.115 -175.12)" fill="#37a884"/></g><g transform="translate(1.075 9.864)"><path d="M266.333,212.2a5.925,5.925,0,0,0,5.134,2.964Z" transform="translate(-266.333 -212.205)" fill="#9962a2"/></g><g transform="translate(6.77 9.864)"><path d="M299.261,215.169a5.925,5.925,0,0,0,5.134-2.964Z" transform="translate(-299.261 -212.205)" fill="#37a884"/></g></g></g><path d="M-87.8-12.062h2.2q2.586,0,2.586,3.211a3.818,3.818,0,0,1-.336,1.82,2.1,2.1,0,0,1-1.187.9,2.594,2.594,0,0,1,1.336,1,3.547,3.547,0,0,1,.367,1.813q0,3.32-2.844,3.32H-87.8Zm1.531,5.313a1.644,1.644,0,0,0,1.313-.437A2.667,2.667,0,0,0-84.586-8.8q0-1.953-1.406-1.953h-.2a.229.229,0,0,0-.078.008Zm0,5.359a1.8,1.8,0,0,0,1.383-.43A2.375,2.375,0,0,0-84.5-3.375a2.5,2.5,0,0,0-.4-1.617,1.7,1.7,0,0,0-1.367-.469Zm11.687-4.344A10.432,10.432,0,0,1-75.29-1.2,2.481,2.481,0,0,1-77.673.148,2.54,2.54,0,0,1-80.149-1.3,12.329,12.329,0,0,1-80.86-6.32a10.553,10.553,0,0,1,.7-4.555,2.5,2.5,0,0,1,2.406-1.344A2.569,2.569,0,0,1-75.5-11.18,4.924,4.924,0,0,1-74.8-9.2,20.566,20.566,0,0,1-74.579-5.734Zm-1.7.172a19.286,19.286,0,0,0-.281-4.156q-.281-1.031-1.148-1.031a1.151,1.151,0,0,0-1.156.945,16.478,16.478,0,0,0-.281,3.828,15.209,15.209,0,0,0,.3,3.672,1.166,1.166,0,0,0,1.141.969,1.14,1.14,0,0,0,1.125-.906A11.993,11.993,0,0,0-76.282-5.562Zm5.64-6.5h1.266L-66.791,0H-68.4l-.453-2.352h-2.391L-71.7,0h-1.562Zm1.555,8.453-.359-1.922q-.359-1.961-.586-4.187-.109,1.086-.281,2.2t-.406,2.363l-.3,1.547Zm3.89-8.453h2.141a2.731,2.731,0,0,1,1.977.633,3.413,3.413,0,0,1,.82,2.508,4.3,4.3,0,0,1-.434,2.082,1.859,1.859,0,0,1-1.238.973L-59.713,0h-1.648l-2.211-5.906V0H-65.2Zm1.625,5.344a1.723,1.723,0,0,0,1.336-.437,2.21,2.21,0,0,0,.391-1.477,4.84,4.84,0,0,0-.082-.961,1.724,1.724,0,0,0-.258-.648,1.039,1.039,0,0,0-.453-.367,1.69,1.69,0,0,0-.66-.117h-.273Zm5.757-5.344h2a5.033,5.033,0,0,1,1.539.2,2.437,2.437,0,0,1,1.031.7,4.368,4.368,0,0,1,.969,1.953,14.679,14.679,0,0,1,.289,3.336,13.539,13.539,0,0,1-.32,3.25A3.562,3.562,0,0,1-53.339-.789,4.809,4.809,0,0,1-56.5,0h-1.312ZM-56.19-1.422a2.067,2.067,0,0,0,1.984-.9,7.9,7.9,0,0,0,.516-3.492,10.143,10.143,0,0,0-.492-3.836,1.814,1.814,0,0,0-1.8-1.047h-.2Zm6.46-10.641H-48.1V0H-49.73Zm4.124,0h1.516l1.617,4.813A43.985,43.985,0,0,1-41.231-2.9q-.2-1.4-.289-2.531t-.094-2.133v-4.5h1.633V0H-41.5l-1.82-5.43q-.25-.758-.473-1.555t-.41-1.672q-.016-.109-.051-.266t-.082-.359q.023.2.039.348t.023.246l.086,1.227.086,1.492q.008.125.012.3t0,.406L-44,0h-1.6Zm11.015,5.719h2.953v.469a12.159,12.159,0,0,1-.617,4.758A2.294,2.294,0,0,1-34.536.148,2.557,2.557,0,0,1-37-1.258a11.075,11.075,0,0,1-.727-4.727q0-3.8.8-5.055a2.54,2.54,0,0,1,2.3-1.18,2.753,2.753,0,0,1,1.852.57,3.828,3.828,0,0,1,1.047,1.9l-1.516.633a5.378,5.378,0,0,0-.227-.8,1.828,1.828,0,0,0-.273-.5,1.077,1.077,0,0,0-.891-.367q-.813,0-1.109,1a15.914,15.914,0,0,0-.3,3.758,14.663,14.663,0,0,0,.3,3.711,1.169,1.169,0,0,0,1.148.969A1.1,1.1,0,0,0-33.5-2.039a6.34,6.34,0,0,0,.32-2.359v-.57h-1.414Zm9.163-5.719h2.141a2.889,2.889,0,0,1,2.25.781,3.694,3.694,0,0,1,.7,2.5q0,2.406-1.414,3.109a5.177,5.177,0,0,1-2.055.32V0h-1.625Zm1.625,5.32a1.879,1.879,0,0,0,1.391-.406,2.14,2.14,0,0,0,.391-1.469A2.647,2.647,0,0,0-22.4-10.2a1.378,1.378,0,0,0-1.18-.5H-23.8Zm6.71-5.32h1.266L-13.241,0H-14.85L-15.3-2.352h-2.391L-18.155,0h-1.562Zm1.555,8.453L-15.9-5.531q-.359-1.961-.586-4.187-.109,1.086-.281,2.2t-.406,2.363l-.3,1.547Zm7.913-8.2v1.586a2.38,2.38,0,0,0-1.336-.531,1.342,1.342,0,0,0-1.047.453,1.6,1.6,0,0,0-.406,1.148,1.977,1.977,0,0,0,.289,1.086,4.8,4.8,0,0,0,.488.625q.34.383.879.922A7.22,7.22,0,0,1-7.406-4.781a3.832,3.832,0,0,1,.359,1.742,3.383,3.383,0,0,1-.789,2.3A2.591,2.591,0,0,1-9.859.148a2.8,2.8,0,0,1-1.773-.57V-2.031a2.765,2.765,0,0,0,1.578.633A1.29,1.29,0,0,0-9.015-1.84a1.792,1.792,0,0,0,.375-1.2,2.4,2.4,0,0,0-.289-1.18,4.819,4.819,0,0,0-.414-.574q-.266-.324-.664-.723-.617-.609-1.023-1.078a5.086,5.086,0,0,1-.6-.82,3.593,3.593,0,0,1-.375-1.734,3.258,3.258,0,0,1,.734-2.242,2.531,2.531,0,0,1,1.992-.836A3.517,3.517,0,0,1-7.624-11.812Zm6.609,0v1.586a2.38,2.38,0,0,0-1.336-.531A1.342,1.342,0,0,0-3.4-10.3,1.6,1.6,0,0,0-3.8-9.156,1.977,1.977,0,0,0-3.516-8.07a4.8,4.8,0,0,0,.488.625q.34.383.879.922A7.22,7.22,0,0,1-.8-4.781,3.832,3.832,0,0,1-.437-3.039a3.383,3.383,0,0,1-.789,2.3A2.591,2.591,0,0,1-3.25.148a2.8,2.8,0,0,1-1.773-.57V-2.031A2.765,2.765,0,0,0-3.445-1.4,1.29,1.29,0,0,0-2.406-1.84a1.792,1.792,0,0,0,.375-1.2,2.4,2.4,0,0,0-.289-1.18,4.819,4.819,0,0,0-.414-.574Q-3-5.117-3.4-5.516q-.617-.609-1.023-1.078a5.086,5.086,0,0,1-.6-.82A3.593,3.593,0,0,1-5.4-9.148a3.258,3.258,0,0,1,.734-2.242,2.531,2.531,0,0,1,1.992-.836A3.517,3.517,0,0,1-1.016-11.812Z" transform="translate(780 6338)" fill="#9b9a9a"/><rect width="385" height="100" transform="translate(420 6363)" fill="#35b597"/><rect width="385" height="100" transform="translate(420 6363)" fill="#35b597"/><g transform="translate(33 2)"><path d="M-.055-21.109H2.953l1.395,4.594q.068.205.137.451t.164.533a32.842,32.842,0,0,1,1.066,4.184q.246-1.7.41-2.365L6.563-15.6l.164-.738L7.9-21.109h2.967L7.191-9.078V0H4.348V-9.078ZM22.818-10.035q0,5.592-1.244,7.943A4.342,4.342,0,0,1,17.4.26,4.445,4.445,0,0,1,13.07-2.27q-1.244-2.475-1.244-8.791,0-5.633,1.23-7.971a4.377,4.377,0,0,1,4.211-2.352,4.5,4.5,0,0,1,3.938,1.818,8.617,8.617,0,0,1,1.23,3.459A35.991,35.991,0,0,1,22.818-10.035Zm-2.98.3a33.75,33.75,0,0,0-.492-7.273q-.492-1.8-2.01-1.8a2.015,2.015,0,0,0-2.023,1.654,28.837,28.837,0,0,0-.492,6.7,26.615,26.615,0,0,0,.52,6.426,2.04,2.04,0,0,0,2,1.7A2,2,0,0,0,19.3-3.924,20.988,20.988,0,0,0,19.838-9.734Zm5.8-11.375h2.789V-6.193a7.318,7.318,0,0,0,.41,3.035,1.744,1.744,0,0,0,1.668.752,1.77,1.77,0,0,0,1.641-.656,5.929,5.929,0,0,0,.41-2.721V-21.109h2.789V-5.783q0,3.445-1.053,4.662A4.946,4.946,0,0,1,30.447.26a4.42,4.42,0,0,1-4.006-1.777q-.807-1.217-.807-4.676Zm21.766,0h2.215L54.141,0H51.324l-.793-4.115H46.348L45.541,0H42.807ZM50.121-6.316,49.492-9.68q-.629-3.432-1.025-7.328-.191,1.9-.492,3.849t-.711,4.136l-.52,2.707Zm5.688-14.793h3.746A4.779,4.779,0,0,1,63.014-20a5.973,5.973,0,0,1,1.436,4.389,7.531,7.531,0,0,1-.759,3.644,3.254,3.254,0,0,1-2.167,1.7L65.406,0H62.521L58.652-10.336V0H55.809Zm2.844,9.352a3.015,3.015,0,0,0,2.338-.766,3.867,3.867,0,0,0,.684-2.584,8.471,8.471,0,0,0-.144-1.682,3.016,3.016,0,0,0-.451-1.135,1.817,1.817,0,0,0-.793-.643,2.958,2.958,0,0,0-1.155-.205h-.479Zm8.955-9.352h7.561V-18.7H70.451v6.686h4.184v2.406H70.451v7.205h4.717V0H67.607Z" transform="translate(454 6424)" fill="#fff"/><text transform="translate(538 6428)" fill="#fff" font-size="40" font-family="NotoSansJP-Regular, Noto Sans JP"><tspan x="0" y="0">GROUP 3</tspan></text></g><rect width="385" height="60" transform="translate(420 6463)" fill="#bcbcbc"/><g transform="translate(0 5)"><path d="M.7-9.047H2.3a2.167,2.167,0,0,1,1.688.586,2.771,2.771,0,0,1,.527,1.875q0,1.8-1.061,2.332a3.883,3.883,0,0,1-1.541.24V0H.7Zm1.219,3.99a1.409,1.409,0,0,0,1.043-.3,1.6,1.6,0,0,0,.293-1.1,1.985,1.985,0,0,0-.281-1.184,1.034,1.034,0,0,0-.885-.375h-.17Zm4.673-3.99h.949L9.477,0H8.27l-.34-1.764H6.138L5.792,0H4.62Zm1.166,6.34-.27-1.441q-.27-1.471-.439-3.141-.082.814-.211,1.649t-.3,1.772l-.223,1.16Zm2.557-6.34h1.605a2.048,2.048,0,0,1,1.482.475,2.56,2.56,0,0,1,.615,1.881A3.228,3.228,0,0,1,13.69-5.13a1.4,1.4,0,0,1-.929.729L14.426,0H13.189L11.531-4.43V0H10.312Zm1.219,4.008a1.292,1.292,0,0,0,1-.328,1.657,1.657,0,0,0,.293-1.107,3.63,3.63,0,0,0-.062-.721,1.293,1.293,0,0,0-.193-.486.779.779,0,0,0-.34-.275,1.268,1.268,0,0,0-.5-.088h-.205Zm3.354-4.008h3.967V-7.98H17.487V0h-1.2V-7.98H14.885Zm4.579,0h1.289l.6,1.969q.029.088.059.193t.07.229a14.075,14.075,0,0,1,.457,1.793q.105-.727.176-1.014l.188-.809L22.371-7l.5-2.045h1.271L22.57-3.891V0H21.351V-3.891Zm11.1.188V-7.67a1.785,1.785,0,0,0-1-.4,1.006,1.006,0,0,0-.785.34,1.2,1.2,0,0,0-.3.861,1.482,1.482,0,0,0,.217.814,3.6,3.6,0,0,0,.366.469q.255.287.659.691a5.415,5.415,0,0,1,1.014,1.307A2.874,2.874,0,0,1,31-2.279,2.537,2.537,0,0,1,30.4-.551a1.944,1.944,0,0,1-1.518.662,2.1,2.1,0,0,1-1.33-.428V-1.523a2.074,2.074,0,0,0,1.184.475.968.968,0,0,0,.779-.331,1.344,1.344,0,0,0,.281-.9,1.8,1.8,0,0,0-.217-.885,3.614,3.614,0,0,0-.311-.431q-.2-.243-.5-.542-.463-.457-.768-.809a3.815,3.815,0,0,1-.451-.615,2.7,2.7,0,0,1-.281-1.3,2.443,2.443,0,0,1,.551-1.682A1.9,1.9,0,0,1,29.32-9.17,2.638,2.638,0,0,1,30.562-8.859Zm1-.187h3.967V-7.98H34.168V0h-1.2V-7.98H31.567Zm5.88,0H38.4L40.335,0H39.128l-.34-1.764H37L36.649,0H35.478Zm1.166,6.34-.27-1.441q-.27-1.471-.439-3.141-.082.814-.211,1.649t-.3,1.772l-.223,1.16Zm2.558-6.34h1.605a2.048,2.048,0,0,1,1.482.475,2.56,2.56,0,0,1,.615,1.881,3.228,3.228,0,0,1-.325,1.562,1.4,1.4,0,0,1-.929.729L45.283,0H44.047L42.389-4.43V0H41.17Zm1.219,4.008a1.292,1.292,0,0,0,1-.328,1.657,1.657,0,0,0,.293-1.107,3.63,3.63,0,0,0-.062-.721,1.293,1.293,0,0,0-.193-.486.779.779,0,0,0-.34-.275,1.268,1.268,0,0,0-.5-.088h-.205Zm3.354-4.008H49.71V-7.98H48.345V0h-1.2V-7.98H45.743Z" transform="translate(460 6483)" fill="#fff"/><text transform="translate(460 6502)" fill="#fff" font-size="16" font-family="NotoSansJP-Regular, Noto Sans JP"><tspan x="0" y="0">14:00</tspan></text></g><g transform="translate(36 5)"><path d="M.7-9.047H2.2a3.774,3.774,0,0,1,1.154.152,1.828,1.828,0,0,1,.773.521,3.276,3.276,0,0,1,.727,1.465,11.009,11.009,0,0,1,.217,2.5,10.154,10.154,0,0,1-.24,2.438A2.672,2.672,0,0,1,4.055-.592,3.607,3.607,0,0,1,1.682,0H.7Zm1.219,7.98A1.55,1.55,0,0,0,3.4-1.74a5.928,5.928,0,0,0,.387-2.619,7.607,7.607,0,0,0-.369-2.877,1.361,1.361,0,0,0-1.354-.785H1.916Zm5.7-7.98h.949L10.509,0H9.3l-.34-1.764H7.169L6.823,0H5.651Zm1.166,6.34-.27-1.441q-.27-1.471-.439-3.141-.082.814-.211,1.649t-.3,1.772l-.223,1.16Zm1.643-6.34H14.4V-7.98H13.031V0h-1.2V-7.98H10.429Zm4.761,0h3.24v1.031H16.409V-5.15H18.2v1.031H16.409v3.088H18.43V0H15.19Z" transform="translate(552 6483)" fill="#fff"/><path d="M2.422-8.828H.875v-.32a6.081,6.081,0,0,1,.137-1.383,2.439,2.439,0,0,1,.43-.953,1.716,1.716,0,0,1,.746-.551,3,3,0,0,1,1.086-.176,2.352,2.352,0,0,1,1.938.75A3.767,3.767,0,0,1,5.82-9.078a4.856,4.856,0,0,1-.281,1.938,1.828,1.828,0,0,1-1.055.914,1.948,1.948,0,0,1,1.164.9,4.329,4.329,0,0,1,.32,1.93,4.267,4.267,0,0,1-.687,2.68A2.577,2.577,0,0,1,3.141.141Q.656.141.656-2.711v-.211a.454.454,0,0,1,.008-.109H2.188q-.008.133-.012.23t0,.16a1.628,1.628,0,0,0,.27.984.866.866,0,0,0,.738.367A1.043,1.043,0,0,0,3.7-1.41.9.9,0,0,0,4.051-1.8a2.288,2.288,0,0,0,.2-.7,7.36,7.36,0,0,0,.063-1.039A2.888,2.888,0,0,0,3.98-5.125a1.243,1.243,0,0,0-1.105-.484,1.644,1.644,0,0,0-.187.012l-.234.027V-6.977H2.68a1.61,1.61,0,0,0,1.281-.406A2.528,2.528,0,0,0,4.3-8.922q0-1.875-.945-1.875T2.414-9.2Zm9.633-3.234h1.633V-2.8a3.814,3.814,0,0,1-.414,2.039,2.209,2.209,0,0,1-1.984.914A2.841,2.841,0,0,1,9.906-.164V-1.789a2.378,2.378,0,0,0,1.078.414q1.07,0,1.07-1.508v-9.18Zm3.492,0h1.594v8.523A4.182,4.182,0,0,0,17.375-1.8a1,1,0,0,0,.953.43,1.012,1.012,0,0,0,.938-.375A3.388,3.388,0,0,0,19.5-3.3v-8.758h1.594V-3.3a4.24,4.24,0,0,1-.6,2.664,2.826,2.826,0,0,1-2.2.789A2.526,2.526,0,0,1,16.008-.867a5.3,5.3,0,0,1-.461-2.672Zm7.406,0h1.625V-1.375h2.656V0H22.953ZM32.992-8.141H31.4l-.016-.477a4.851,4.851,0,0,1,.594-2.781,2.344,2.344,0,0,1,2.016-.812q2.664,0,2.664,2.953,0,1.992-1.992,5.742l-.961,1.8-.047.094q-.039.078-.109.227h2.984V0h-5.3q.133-.3.555-1.18t1.148-2.383q.617-1.312,1.031-2.227t.625-1.5a6.132,6.132,0,0,0,.422-2.023q0-1.5-1.039-1.5-1,0-1,1.859l.008.688Zm10.3,2.2a12.7,12.7,0,0,1-.625,4.688A2.143,2.143,0,0,1,40.57.141a2.157,2.157,0,0,1-2.109-1.4,12.8,12.8,0,0,1-.617-4.773,12.8,12.8,0,0,1,.617-4.773,2.143,2.143,0,0,1,2.1-1.406,2.156,2.156,0,0,1,2.031,1.234Q43.3-9.672,43.3-5.937Zm-1.656,0a20.228,20.228,0,0,0-.234-3.781q-.234-1.039-.852-1.039T39.7-9.727a19.527,19.527,0,0,0-.234,3.711A19.663,19.663,0,0,0,39.7-2.3q.242,1.031.859,1.031T41.4-2.289A17.944,17.944,0,0,0,41.641-5.937Zm4.6-2.2H44.648l-.016-.477a4.851,4.851,0,0,1,.594-2.781,2.344,2.344,0,0,1,2.016-.812q2.664,0,2.664,2.953,0,1.992-1.992,5.742l-.961,1.8-.047.094q-.039.078-.109.227h2.984V0h-5.3q.133-.3.555-1.18t1.148-2.383q.617-1.312,1.031-2.227t.625-1.5a6.132,6.132,0,0,0,.422-2.023q0-1.5-1.039-1.5-1,0-1,1.859l.008.688Zm5.18-3.922h2.75V0H52.617V-10.68h-1.2Z" transform="translate(552 6502)" fill="#fff"/></g><g transform="translate(86 5)"><path d="M.7-9.047H2.3a2.167,2.167,0,0,1,1.688.586,2.771,2.771,0,0,1,.527,1.875q0,1.8-1.061,2.332a3.883,3.883,0,0,1-1.541.24V0H.7Zm1.219,3.99a1.409,1.409,0,0,0,1.043-.3,1.6,1.6,0,0,0,.293-1.1,1.985,1.985,0,0,0-.281-1.184,1.034,1.034,0,0,0-.885-.375h-.17Zm4.673-3.99h.949L9.477,0H8.27l-.34-1.764H6.138L5.792,0H4.62Zm1.166,6.34-.27-1.441q-.27-1.471-.439-3.141-.082.814-.211,1.649t-.3,1.772l-.223,1.16Zm2.557-6.34h1.605a2.048,2.048,0,0,1,1.482.475,2.56,2.56,0,0,1,.615,1.881A3.228,3.228,0,0,1,13.69-5.13a1.4,1.4,0,0,1-.929.729L14.426,0H13.189L11.531-4.43V0H10.312Zm1.219,4.008a1.292,1.292,0,0,0,1-.328,1.657,1.657,0,0,0,.293-1.107,3.63,3.63,0,0,0-.062-.721,1.293,1.293,0,0,0-.193-.486.779.779,0,0,0-.34-.275,1.268,1.268,0,0,0-.5-.088h-.205Zm3.354-4.008h3.967V-7.98H17.487V0h-1.2V-7.98H14.885Zm4.579,0h1.289l.6,1.969q.029.088.059.193t.07.229a14.075,14.075,0,0,1,.457,1.793q.105-.727.176-1.014l.188-.809L22.371-7l.5-2.045h1.271L22.57-3.891V0H21.351V-3.891Zm8.08,0h3.24v1.031H28.763V-5.15h1.793v1.031H28.763v3.088h2.021V0h-3.24Zm4.479,0H33.16l1.213,3.609A32.989,32.989,0,0,1,35.3-2.174q-.146-1.049-.217-1.9t-.07-1.6V-9.047h1.225V0H35.1L33.735-4.072q-.187-.568-.354-1.166t-.308-1.254q-.012-.082-.038-.2t-.062-.27q.018.152.029.261t.018.185l.064.92.064,1.119q.006.094.009.229t0,.3L33.225,0h-1.2Zm5.733,0h1.5a3.774,3.774,0,0,1,1.154.152,1.828,1.828,0,0,1,.773.521,3.276,3.276,0,0,1,.727,1.465,11.009,11.009,0,0,1,.217,2.5,10.154,10.154,0,0,1-.24,2.438,2.672,2.672,0,0,1-.773,1.377A3.607,3.607,0,0,1,38.741,0h-.984Zm1.219,7.98a1.55,1.55,0,0,0,1.488-.674,5.928,5.928,0,0,0,.387-2.619,7.607,7.607,0,0,0-.369-2.877,1.361,1.361,0,0,0-1.354-.785h-.152Z" transform="translate(637 6483)" fill="#fff"/><text transform="translate(637 6502)" fill="#fff" font-size="16" font-family="NotoSansJP-Regular, Noto Sans JP"><tspan x="0" y="0">15:00</tspan></text></g><path d="M.7-9.047H2.3a2.167,2.167,0,0,1,1.688.586,2.771,2.771,0,0,1,.527,1.875q0,1.8-1.061,2.332a3.883,3.883,0,0,1-1.541.24V0H.7Zm1.219,3.99a1.409,1.409,0,0,0,1.043-.3,1.6,1.6,0,0,0,.293-1.1,1.985,1.985,0,0,0-.281-1.184,1.034,1.034,0,0,0-.885-.375h-.17Zm4.673-3.99h.949L9.477,0H8.27l-.34-1.764H6.138L5.792,0H4.62Zm1.166,6.34-.27-1.441q-.27-1.471-.439-3.141-.082.814-.211,1.649t-.3,1.772l-.223,1.16ZM13.33-8.859V-7.67a1.785,1.785,0,0,0-1-.4,1.006,1.006,0,0,0-.785.34,1.2,1.2,0,0,0-.3.861,1.482,1.482,0,0,0,.217.814,3.6,3.6,0,0,0,.366.469q.255.287.659.691a5.415,5.415,0,0,1,1.014,1.307,2.874,2.874,0,0,1,.27,1.307,2.537,2.537,0,0,1-.592,1.729,1.944,1.944,0,0,1-1.518.662,2.1,2.1,0,0,1-1.33-.428V-1.523a2.074,2.074,0,0,0,1.184.475.968.968,0,0,0,.779-.331,1.344,1.344,0,0,0,.281-.9,1.8,1.8,0,0,0-.217-.885,3.614,3.614,0,0,0-.311-.431q-.2-.243-.5-.542-.463-.457-.768-.809a3.815,3.815,0,0,1-.451-.615,2.7,2.7,0,0,1-.281-1.3,2.443,2.443,0,0,1,.551-1.682,1.9,1.9,0,0,1,1.494-.627A2.638,2.638,0,0,1,13.33-8.859Zm4.6,0V-7.67a1.785,1.785,0,0,0-1-.4,1.006,1.006,0,0,0-.785.34,1.2,1.2,0,0,0-.3.861,1.482,1.482,0,0,0,.217.814,3.6,3.6,0,0,0,.366.469q.255.287.659.691A5.415,5.415,0,0,1,18.09-3.586a2.874,2.874,0,0,1,.27,1.307,2.537,2.537,0,0,1-.592,1.729,1.944,1.944,0,0,1-1.518.662,2.1,2.1,0,0,1-1.33-.428V-1.523a2.074,2.074,0,0,0,1.184.475.968.968,0,0,0,.779-.331,1.344,1.344,0,0,0,.281-.9,1.8,1.8,0,0,0-.217-.885,3.614,3.614,0,0,0-.311-.431q-.2-.243-.5-.542-.463-.457-.768-.809a3.815,3.815,0,0,1-.451-.615,2.7,2.7,0,0,1-.281-1.3,2.443,2.443,0,0,1,.551-1.682,1.9,1.9,0,0,1,1.494-.627A2.638,2.638,0,0,1,17.926-8.859Zm1.579-.187h3.24v1.031H20.724V-5.15h1.793v1.031H20.724v3.088h2.021V0h-3.24Zm4.479,0h1.137l1.213,3.609a32.989,32.989,0,0,1,.932,3.264q-.146-1.049-.217-1.9t-.07-1.6V-9.047H28.2V0H27.061L25.7-4.072q-.187-.568-.354-1.166t-.308-1.254q-.012-.082-.038-.2t-.062-.27q.018.152.029.261t.018.185l.064.92.064,1.119q.006.094.009.229t0,.3L25.186,0h-1.2Zm7.9,4.289H34.1v.352a9.12,9.12,0,0,1-.463,3.568,1.721,1.721,0,0,1-1.711.949A1.918,1.918,0,0,1,30.081-.943a8.306,8.306,0,0,1-.545-3.545,7.976,7.976,0,0,1,.6-3.791,1.905,1.905,0,0,1,1.729-.885,2.065,2.065,0,0,1,1.389.428,2.871,2.871,0,0,1,.785,1.424L32.9-6.838a4.034,4.034,0,0,0-.17-.6,1.371,1.371,0,0,0-.205-.378.808.808,0,0,0-.668-.275q-.609,0-.832.75A11.935,11.935,0,0,0,30.8-4.523a11,11,0,0,0,.229,2.783.877.877,0,0,0,.861.727.826.826,0,0,0,.814-.516,4.755,4.755,0,0,0,.24-1.77v-.428H31.886Zm3.548-4.289h3.24v1.031H36.653V-5.15h1.793v1.031H36.653v3.088h2.021V0h-3.24Zm4.479,0h1.605A2.048,2.048,0,0,1,43-8.572a2.56,2.56,0,0,1,.615,1.881,3.228,3.228,0,0,1-.325,1.562,1.4,1.4,0,0,1-.929.729L44.026,0H42.79L41.132-4.43V0H39.913Zm1.219,4.008a1.292,1.292,0,0,0,1-.328,1.657,1.657,0,0,0,.293-1.107,3.63,3.63,0,0,0-.062-.721,1.293,1.293,0,0,0-.193-.486.779.779,0,0,0-.34-.275,1.268,1.268,0,0,0-.5-.088h-.205Z" transform="translate(460 6555)" fill="#bcbcbc"/><text transform="translate(460 6577)" fill="#9b9a9a" font-size="16" font-family="NotoSansJP-Regular, Noto Sans JP"><tspan x="0" y="0">山田　太郎</tspan></text><path d="M.7-9.047H3.955v1.031H1.916v2.859h1.84v1.031H1.916V0H.7Zm4.315,0H6.231v8.016H8.224V0H5.013Zm4.093,0h1.219V0H9.105Zm4.9,4.289h2.215v.352a9.12,9.12,0,0,1-.463,3.568,1.721,1.721,0,0,1-1.711.949A1.918,1.918,0,0,1,12.2-.943a8.306,8.306,0,0,1-.545-3.545,7.976,7.976,0,0,1,.6-3.791,1.905,1.905,0,0,1,1.729-.885,2.065,2.065,0,0,1,1.389.428,2.871,2.871,0,0,1,.785,1.424l-1.137.475a4.034,4.034,0,0,0-.17-.6,1.371,1.371,0,0,0-.205-.378.808.808,0,0,0-.668-.275q-.609,0-.832.75a11.935,11.935,0,0,0-.223,2.818,11,11,0,0,0,.229,2.783.877.877,0,0,0,.861.727.826.826,0,0,0,.814-.516,4.755,4.755,0,0,0,.24-1.77v-.428H14.006Zm3.548-4.289h1.219v3.539H20.56V-9.047h1.219V0H20.56V-4.477H18.773V0H17.554Zm5.018,0h3.967V-7.98H25.174V0h-1.2V-7.98H22.573Z" transform="translate(460 6614)" fill="#bcbcbc"/><path d="M4.953-11.812v1.586a2.38,2.38,0,0,0-1.336-.531A1.342,1.342,0,0,0,2.57-10.3a1.6,1.6,0,0,0-.406,1.148A1.977,1.977,0,0,0,2.453-8.07a4.8,4.8,0,0,0,.488.625q.34.383.879.922A7.22,7.22,0,0,1,5.172-4.781a3.832,3.832,0,0,1,.359,1.742,3.383,3.383,0,0,1-.789,2.3A2.591,2.591,0,0,1,2.719.148,2.8,2.8,0,0,1,.945-.422V-2.031A2.765,2.765,0,0,0,2.523-1.4,1.29,1.29,0,0,0,3.563-1.84a1.792,1.792,0,0,0,.375-1.2,2.4,2.4,0,0,0-.289-1.18,4.819,4.819,0,0,0-.414-.574q-.266-.324-.664-.723-.617-.609-1.023-1.078a5.086,5.086,0,0,1-.6-.82A3.593,3.593,0,0,1,.57-9.148,3.258,3.258,0,0,1,1.3-11.391,2.531,2.531,0,0,1,3.3-12.227,3.517,3.517,0,0,1,4.953-11.812Zm1.945-.25H9.039a2.889,2.889,0,0,1,2.25.781,3.694,3.694,0,0,1,.7,2.5q0,2.406-1.414,3.109a5.177,5.177,0,0,1-2.055.32V0H6.9Zm1.625,5.32a1.879,1.879,0,0,0,1.391-.406A2.14,2.14,0,0,0,10.3-8.617,2.647,2.647,0,0,0,9.93-10.2a1.378,1.378,0,0,0-1.18-.5H8.523Zm4.563-5.32h5.391L14.82,0H13.086l3.352-10.687H13.086ZM24.977-5.937a12.7,12.7,0,0,1-.625,4.688A2.143,2.143,0,0,1,22.25.141a2.157,2.157,0,0,1-2.109-1.4,12.8,12.8,0,0,1-.617-4.773,12.8,12.8,0,0,1,.617-4.773,2.143,2.143,0,0,1,2.1-1.406,2.156,2.156,0,0,1,2.031,1.234Q24.977-9.672,24.977-5.937Zm-1.656,0a20.228,20.228,0,0,0-.234-3.781q-.234-1.039-.852-1.039t-.859,1.031a19.527,19.527,0,0,0-.234,3.711A19.663,19.663,0,0,0,21.375-2.3q.242,1.031.859,1.031t.844-1.023A17.944,17.944,0,0,0,23.32-5.937Zm4.664-2.891H26.438v-.32a6.081,6.081,0,0,1,.137-1.383,2.439,2.439,0,0,1,.43-.953,1.716,1.716,0,0,1,.746-.551,3,3,0,0,1,1.086-.176,2.352,2.352,0,0,1,1.938.75,3.767,3.767,0,0,1,.609,2.383A4.856,4.856,0,0,1,31.1-7.141a1.828,1.828,0,0,1-1.055.914,1.948,1.948,0,0,1,1.164.9,4.329,4.329,0,0,1,.32,1.93,4.267,4.267,0,0,1-.687,2.68A2.577,2.577,0,0,1,28.7.141q-2.484,0-2.484-2.852v-.211a.454.454,0,0,1,.008-.109H27.75q-.008.133-.012.23t0,.16a1.628,1.628,0,0,0,.27.984.866.866,0,0,0,.738.367,1.043,1.043,0,0,0,.52-.121.9.9,0,0,0,.352-.391,2.288,2.288,0,0,0,.2-.7,7.36,7.36,0,0,0,.063-1.039,2.888,2.888,0,0,0-.332-1.586,1.243,1.243,0,0,0-1.105-.484,1.644,1.644,0,0,0-.187.012l-.234.027V-6.977h.227a1.61,1.61,0,0,0,1.281-.406,2.528,2.528,0,0,0,.336-1.539q0-1.875-.945-1.875t-.937,1.6Z" transform="translate(460 6633)" fill="#9b9a9a"/><g transform="translate(129)"><path d="M2.865-4.758H5.08v.352A9.12,9.12,0,0,1,4.617-.838,1.721,1.721,0,0,1,2.906.111,1.918,1.918,0,0,1,1.061-.943,8.306,8.306,0,0,1,.516-4.488a7.976,7.976,0,0,1,.6-3.791,1.905,1.905,0,0,1,1.729-.885,2.065,2.065,0,0,1,1.389.428,2.871,2.871,0,0,1,.785,1.424l-1.137.475a4.034,4.034,0,0,0-.17-.6A1.371,1.371,0,0,0,3.5-7.816a.808.808,0,0,0-.668-.275q-.609,0-.832.75a11.935,11.935,0,0,0-.223,2.818A11,11,0,0,0,2.01-1.74a.877.877,0,0,0,.861.727.826.826,0,0,0,.814-.516,4.755,4.755,0,0,0,.24-1.77v-.428H2.865ZM7.7-9.047h.949L10.591,0H9.384l-.34-1.764H7.251L6.905,0H5.733Zm1.166,6.34L8.6-4.148q-.27-1.471-.439-3.141-.082.814-.211,1.649t-.3,1.772l-.223,1.16Zm1.643-6.34h3.967V-7.98H13.113V0h-1.2V-7.98H10.511Zm4.761,0h3.24v1.031H16.491V-5.15h1.793v1.031H16.491v3.088h2.021V0h-3.24Z" transform="translate(460 6614)" fill="#bcbcbc"/><path d="M.93-12.062H5.25v1.375h-2.7v3.82H4.945v1.375H2.555v4.117h2.7V0H.93Zm5.813,0H8.258L9.875-7.25A43.985,43.985,0,0,1,11.117-2.9q-.2-1.4-.289-2.531t-.094-2.133v-4.5h1.633V0H10.844L9.023-5.43q-.25-.758-.473-1.555t-.41-1.672q-.016-.109-.051-.266t-.082-.359q.023.2.039.348t.023.246l.086,1.227.086,1.492q.008.125.012.3t0,.406L8.344,0h-1.6Zm6.523,0h5.289v1.422h-1.82V0H15.141V-10.641H13.266Zm6.188,0h2.141a2.731,2.731,0,0,1,1.977.633,3.413,3.413,0,0,1,.82,2.508,4.3,4.3,0,0,1-.434,2.082,1.859,1.859,0,0,1-1.238.973L24.938,0H23.289L21.078-5.906V0H19.453Zm1.625,5.344a1.723,1.723,0,0,0,1.336-.437A2.21,2.21,0,0,0,22.8-8.633a4.84,4.84,0,0,0-.082-.961,1.724,1.724,0,0,0-.258-.648,1.038,1.038,0,0,0-.453-.367,1.69,1.69,0,0,0-.66-.117h-.273Zm6.836-5.344H29.18L31.766,0H30.156L29.7-2.352H27.313L26.852,0H25.289Zm1.555,8.453-.359-1.922q-.359-1.961-.586-4.187-.109,1.086-.281,2.2t-.406,2.363l-.3,1.547Zm3.25-8.453h1.516L35.852-7.25A43.985,43.985,0,0,1,37.094-2.9Q36.9-4.3,36.8-5.43t-.094-2.133v-4.5h1.633V0H36.82L35-5.43q-.25-.758-.473-1.555t-.41-1.672q-.016-.109-.051-.266t-.082-.359q.023.2.039.348t.023.246l.086,1.227.086,1.492q.008.125.012.3t0,.406L34.32,0h-1.6Zm12.2.2v1.461a2.51,2.51,0,0,0-1.047-.3,1.706,1.706,0,0,0-.992.285,2.071,2.071,0,0,0-.684.879,5.564,5.564,0,0,0-.4,1.5,15.582,15.582,0,0,0-.129,2.152q0,4.469,2.289,4.469a2.452,2.452,0,0,0,.961-.25V-.18a2.64,2.64,0,0,1-1.312.328q-3.664,0-3.664-5.984a10.062,10.062,0,0,1,.895-4.812,2.943,2.943,0,0,1,2.738-1.578A2.8,2.8,0,0,1,44.922-11.867Zm1.367-.2h4.32v1.375h-2.7v3.82H50.3v1.375H47.914v4.117h2.7V0h-4.32Z" transform="translate(460 6633)" fill="#9b9a9a"/></g><g transform="translate(277)"><path d="M3.715-8.859V-7.67a1.785,1.785,0,0,0-1-.4,1.006,1.006,0,0,0-.785.34,1.2,1.2,0,0,0-.3.861,1.482,1.482,0,0,0,.217.814,3.6,3.6,0,0,0,.366.469q.255.287.659.691A5.415,5.415,0,0,1,3.879-3.586a2.874,2.874,0,0,1,.27,1.307A2.537,2.537,0,0,1,3.557-.551,1.944,1.944,0,0,1,2.039.111,2.1,2.1,0,0,1,.709-.316V-1.523a2.074,2.074,0,0,0,1.184.475.968.968,0,0,0,.779-.331,1.344,1.344,0,0,0,.281-.9,1.8,1.8,0,0,0-.217-.885,3.614,3.614,0,0,0-.311-.431q-.2-.243-.5-.542-.463-.457-.768-.809a3.815,3.815,0,0,1-.451-.615,2.7,2.7,0,0,1-.281-1.3A2.443,2.443,0,0,1,.979-8.543,1.9,1.9,0,0,1,2.473-9.17,2.638,2.638,0,0,1,3.715-8.859Zm1.579-.187h3.24v1.031H6.513V-5.15H8.306v1.031H6.513v3.088H8.534V0H5.294Zm5.768,0h.949L13.951,0H12.744L12.4-1.764H10.611L10.265,0H9.094Zm1.166,6.34-.27-1.441q-.27-1.471-.439-3.141-.082.814-.211,1.649T11-3.867l-.223,1.16Zm1.643-6.34h3.967V-7.98H16.473V0h-1.2V-7.98H13.872Z" transform="translate(460 6614)" fill="#bcbcbc"/><path d="M.93-12.062H5.273v1.375H2.555v3.813H5.008V-5.5H2.555V0H.93Zm5.594,0H8.664a2.731,2.731,0,0,1,1.977.633,3.413,3.413,0,0,1,.82,2.508,4.3,4.3,0,0,1-.434,2.082,1.859,1.859,0,0,1-1.238.973L12.008,0H10.359L8.148-5.906V0H6.523ZM8.148-6.719a1.723,1.723,0,0,0,1.336-.437,2.21,2.21,0,0,0,.391-1.477,4.84,4.84,0,0,0-.082-.961,1.724,1.724,0,0,0-.258-.648,1.039,1.039,0,0,0-.453-.367,1.69,1.69,0,0,0-.66-.117H8.148Zm5.117-5.344h4.32v1.375h-2.7v3.82h2.391v1.375H14.891v4.117h2.7V0h-4.32Zm5.813,0H23.4v1.375H20.7v3.82h2.391v1.375H20.7v4.117h2.7V0h-4.32ZM26.2-1.8a.917.917,0,0,1,.672.281.926.926,0,0,1,.281.68.926.926,0,0,1-.281.68.984.984,0,0,1-.687.273.975.975,0,0,1-.68-.273.935.935,0,0,1-.281-.687.9.9,0,0,1,.281-.672A.961.961,0,0,1,26.2-1.8Zm-.8-10.258h1.578V-2.9H25.406Z" transform="translate(460 6633)" fill="#9b9a9a"/></g></g></svg>