<svg xmlns="http://www.w3.org/2000/svg" width="311.354" height="442.865" viewBox="0 0 311.354 442.865"><g transform="translate(-227.884 -132.992)"><g transform="translate(227.884 438.197)"><path d="M315.464,296.591h22.242v1.779a36.728,36.728,0,0,1-1.428,10.737,22.9,22.9,0,0,1-4.707,8.09,24.4,24.4,0,0,1-19.071,8.436,26.225,26.225,0,0,1-19.352-8.159,28.1,28.1,0,0,1,31.866-45.149,33.968,33.968,0,0,1,10.286,8.367l-5.787,5.546q-6.622-8.821-16.143-8.822a19.293,19.293,0,0,0-14.328,5.89,19.684,19.684,0,0,0-5.787,14.507,19.086,19.086,0,0,0,6.448,14.817q6.033,5.4,13.074,5.4a16.218,16.218,0,0,0,10.773-4.044,14.38,14.38,0,0,0,5.334-9.762h-13.42Z" transform="translate(-157.41 -269.745)" fill="#3b3938"/><path d="M348.208,306.994h-20.74l-5.4,9.342h-7.876l23.972-40.878,23.126,40.878h-8Zm-2.982-5.455-7.186-13.69-7.53,13.69Z" transform="translate(-121.566 -262.706)" fill="#3b3938"/><path d="M365.7,301.1l16.83,21.876h-9.938l-15.538-20.972h-7.206v22.037h-8.124V270.214h15.261q10.669,0,15.408,4.008a14.731,14.731,0,0,1,5.231,11.784,15.3,15.3,0,0,1-3.278,9.833A14.627,14.627,0,0,1,365.7,301.1Zm-15.852-6.171h8.322q11.54,0,11.538-8.822,0-8.262-11.226-8.262h-8.635Z" transform="translate(-87.656 -269.167)" fill="#3b3938"/><path d="M254.689,325.634c-11.367,0-20.97-8.177-20.97-17.854h7.8c0,5.376,6.276,10.273,13.165,10.273,4.136,0,7.456-1.129,9.6-3.263a7.313,7.313,0,0,0,2.272-5.356c-.109-4.647-3.756-6.169-12.054-8.537-7.432-2.12-16.685-4.758-17.513-14.565a14.353,14.353,0,0,1,3.9-11.242c3.27-3.448,8.166-5.345,13.79-5.345,10.248,0,18.586,7.182,18.586,16.011h-7.454c0-4.649-5.187-8.432-11.132-8.432-3.415,0-6.274,1.031-8.05,2.9a6.9,6.9,0,0,0-1.859,5.486c.35,4.162,4.084,5.673,11.931,7.912,7.345,2.093,17.4,4.964,17.66,15.634a14.715,14.715,0,0,1-4.495,10.831C267.33,322.619,262.63,325.634,254.689,325.634Z" transform="translate(-220.696 -269.745)" fill="#3b3938"/><path d="M235.869,338.525v23.537h-7.985V306.555h9.2c4.511,0,12.9.312,15.208.942a13.676,13.676,0,0,1,6.133,3.555,15.318,15.318,0,0,1,4.638,11.436q0,7.392-4.95,11.715t-13.353,4.323Zm0-7.532h8.159q11.195,0,11.195-8.613,0-8.329-11.541-8.331h-7.814Z" transform="translate(-227.884 -224.402)" fill="#3b3938"/><g transform="translate(111.331 82.153)"><path d="M308.218,338.525v23.537h-7.985V306.555h14.192a41.434,41.434,0,0,1,10.217.942,13.671,13.671,0,0,1,6.135,3.555,15.318,15.318,0,0,1,4.638,11.436q0,7.392-4.95,11.715t-13.353,4.323Zm0-7.532h8.159q11.195,0,11.195-8.613,0-8.329-11.541-8.331h-7.814Z" transform="translate(-250.096 -306.555)" fill="#3b3938"/><path d="M285.756,338.525v23.537h-7.988V306.555h14.194a41.446,41.446,0,0,1,10.217.942,13.664,13.664,0,0,1,6.133,3.555,15.318,15.318,0,0,1,4.638,11.436q0,7.392-4.95,11.715t-13.353,4.323Zm0-7.532h8.157q11.195,0,11.195-8.613,0-8.329-11.541-8.331h-7.811Z" transform="translate(-277.768 -306.555)" fill="#3b3938"/></g><path d="M356.289,312.9H331.98v9.51h19.053v5.8H331.98v9.115h24.148v6.419H324.9V306.555h31.386Z" transform="translate(-108.376 -224.402)" fill="#3b3938"/><path d="M284.485,312.9H260.174v9.51h19.053v5.8H260.174v9.115h24.15v6.419H253.1V306.555h31.386Z" transform="translate(-196.824 -224.402)" fill="#3b3938"/><path d="M373.084,337.445,389.914,361h-9.938l-15.54-22.651h-7.2v23.713h-8.124V306.555h15.259q10.669,0,15.411,4.008a14.732,14.732,0,0,1,5.231,11.784,15.312,15.312,0,0,1-3.278,9.833A14.633,14.633,0,0,1,373.084,337.445Zm-15.853-6.171h8.322q11.536,0,11.538-8.825,0-8.259-11.226-8.262h-8.635Z" transform="translate(-78.56 -224.402)" fill="#3b3938"/><path d="M290.646,278.207v15.848q0,6.24-2,9.13c-1.986,2.781-5.725,4.171-9.333,4.171s-7.347-1.39-9.333-4.171q-2-2.889-2-9.13V278.207h-7.164v17.854c0,5.1,1.294,9.682,4.41,12.987,3.484,3.682,7.925,5.151,14.087,5.151s10.6-1.469,14.087-5.151c3.116-3.305,4.41-7.883,4.41-12.987V278.207Z" transform="translate(-187.318 -259.321)" fill="#3b3938"/></g><g transform="translate(249.731 132.992)"><g transform="translate(251.272 71.145)"><path d="M350.26,287.112a122.188,122.188,0,0,0,0-122.242Z" transform="translate(-350.26 -164.87)" fill="#37a884"/></g><g transform="translate(139.619)"><path d="M406.1,194.112a122.176,122.176,0,0,0-105.863-61.12Z" transform="translate(-300.232 -132.992)" fill="#9962a2"/></g><g transform="translate(22.177)"><path d="M353.473,132.992a122.175,122.175,0,0,0-105.863,61.12Z" transform="translate(-247.61 -132.992)" fill="#37a884"/></g><g transform="translate(0 71.148)"><path d="M254.061,164.871a122.169,122.169,0,0,0,0,122.24Z" transform="translate(-237.673 -164.871)" fill="#9962a2"/></g><g transform="translate(22.177 203.413)"><path d="M247.61,224.135a122.184,122.184,0,0,0,105.863,61.122Z" transform="translate(-247.61 -224.135)" fill="#37a884"/></g><g transform="translate(139.619 203.413)"><path d="M300.232,285.255A122.175,122.175,0,0,0,406.1,224.135Z" transform="translate(-300.232 -224.135)" fill="#9962a2"/></g><g transform="translate(50.086 49.501)"><g transform="translate(157.232 44.52)"><path d="M330.566,251.61a76.457,76.457,0,0,0,0-76.49Z" transform="translate(-330.566 -175.12)" fill="#9962a2"/></g><g transform="translate(87.366)"><path d="M365.505,193.418a76.449,76.449,0,0,0-66.244-38.246Z" transform="translate(-299.261 -155.172)" fill="#37a884"/></g><g transform="translate(13.877)"><path d="M332.577,155.172a76.449,76.449,0,0,0-66.244,38.246Z" transform="translate(-266.333 -155.172)" fill="#9962a2"/></g><g transform="translate(0 44.52)"><path d="M270.37,175.12a76.443,76.443,0,0,0,0,76.49Z" transform="translate(-260.115 -175.12)" fill="#37a884"/></g><g transform="translate(13.877 127.286)"><path d="M266.333,212.205a76.453,76.453,0,0,0,66.244,38.244Z" transform="translate(-266.333 -212.205)" fill="#9962a2"/></g><g transform="translate(87.366 127.286)"><path d="M299.261,250.449a76.453,76.453,0,0,0,66.244-38.244Z" transform="translate(-299.261 -212.205)" fill="#37a884"/></g><g transform="translate(157.232 44.52)"><path d="M330.566,251.61a76.457,76.457,0,0,0,0-76.49Z" transform="translate(-330.566 -175.12)" fill="#9962a2"/></g><g transform="translate(87.366)"><path d="M365.505,193.418a76.449,76.449,0,0,0-66.244-38.246Z" transform="translate(-299.261 -155.172)" fill="#37a884"/></g><g transform="translate(13.877)"><path d="M332.577,155.172a76.449,76.449,0,0,0-66.244,38.246Z" transform="translate(-266.333 -155.172)" fill="#9962a2"/></g><g transform="translate(0 44.52)"><path d="M270.37,175.12a76.443,76.443,0,0,0,0,76.49Z" transform="translate(-260.115 -175.12)" fill="#37a884"/></g><g transform="translate(13.877 127.286)"><path d="M266.333,212.205a76.453,76.453,0,0,0,66.244,38.244Z" transform="translate(-266.333 -212.205)" fill="#9962a2"/></g><g transform="translate(87.366 127.286)"><path d="M299.261,250.449a76.453,76.453,0,0,0,66.244-38.244Z" transform="translate(-299.261 -212.205)" fill="#37a884"/></g></g></g></g></svg>