<svg id="レイヤー_1" data-name="レイヤー 1" xmlns="http://www.w3.org/2000/svg" viewBox="0 0 195.01 308.63"><defs><style>.cls-1{fill:#4c4948;}.cls-2{fill:#35b597;}.cls-3{fill:#b077b0;}</style></defs><path class="cls-1" d="M99,208h13.94v1.12a22.87,22.87,0,0,1-.9,6.72,14.27,14.27,0,0,1-3,5.07,15.27,15.27,0,0,1-11.94,5.28A16.4,16.4,0,0,1,85,221.05,17.56,17.56,0,0,1,97.6,191.16a17.08,17.08,0,0,1,7.38,1.62,21.15,21.15,0,0,1,6.44,5.24l-3.63,3.47Q103.65,196,97.68,196a12.11,12.11,0,0,0-9,3.69,12.33,12.33,0,0,0-3.63,9.09A12.66,12.66,0,0,0,97.31,221.4a10.14,10.14,0,0,0,6.75-2.53,9,9,0,0,0,3.34-6.11H99Z"/><path class="cls-1" d="M142,218.9H129l-3.38,5.85h-4.93l15-25.6,14.49,25.6h-5Zm-1.86-3.42-4.51-8.57-4.71,8.57Z"/><path class="cls-1" d="M174.15,211.16l10.54,13.71h-6.22l-9.74-13.14h-4.51v13.8h-5.09V191.82h9.56q6.67,0,9.65,2.51a9.23,9.23,0,0,1,3.28,7.38,9.58,9.58,0,0,1-2.06,6.16A9.17,9.17,0,0,1,174.15,211.16Zm-9.93-3.86h5.21q7.23,0,7.23-5.53,0-5.18-7-5.17h-5.41Z"/><path class="cls-1" d="M21.29,226.16C14.17,226.16,8.16,221,8.16,215H13c0,3.37,3.94,6.44,8.25,6.44a8.29,8.29,0,0,0,6-2A4.56,4.56,0,0,0,28.73,216c-.07-2.91-2.35-3.87-7.55-5.35-4.66-1.33-10.45-3-11-9.12a9,9,0,0,1,2.44-7,11.7,11.7,0,0,1,8.64-3.35c6.42,0,11.64,4.5,11.64,10H28.26c0-2.91-3.25-5.28-7-5.28a6.79,6.79,0,0,0-5,1.82,4.31,4.31,0,0,0-1.17,3.43c.22,2.61,2.56,3.55,7.48,5,4.6,1.31,10.9,3.1,11.06,9.79a9.19,9.19,0,0,1-2.82,6.78C29.21,224.28,26.26,226.16,21.29,226.16Z"/><path class="cls-1" d="M5,262.64v14.74H0V242.62H5.76a63.5,63.5,0,0,1,9.53.58,8.65,8.65,0,0,1,3.84,2.23A9.58,9.58,0,0,1,22,252.59a9.26,9.26,0,0,1-3.1,7.34,12.27,12.27,0,0,1-8.37,2.71Zm0-4.72h5.11q7,0,7-5.39,0-5.22-7.22-5.22H5Z"/><path class="cls-1" d="M106.13,262.64v14.74h-5V242.62H110a26.23,26.23,0,0,1,6.4.58,8.6,8.6,0,0,1,3.84,2.23,9.58,9.58,0,0,1,2.91,7.16,9.26,9.26,0,0,1-3.1,7.34,12.27,12.27,0,0,1-8.37,2.71Zm0-4.72h5.12q7,0,7-5.39,0-5.22-7.23-5.22h-4.9Z"/><path class="cls-1" d="M74.73,262.64v14.74h-5V242.62h8.89a26.23,26.23,0,0,1,6.4.58,8.65,8.65,0,0,1,3.84,2.23,9.58,9.58,0,0,1,2.91,7.16,9.26,9.26,0,0,1-3.1,7.34,12.27,12.27,0,0,1-8.37,2.71Zm0-4.72h5.11q7,0,7-5.39,0-5.22-7.22-5.22h-4.9Z"/><path class="cls-1" d="M155.28,246.59H140.05v6H152v3.63H140.05v5.71h15.13v4H135.62V242.62h19.66Z"/><path class="cls-1" d="M54.9,246.59H39.68v6H51.61v3.63H39.68v5.71H54.8v4H35.25V242.62H54.9Z"/><path class="cls-1" d="M184.47,262,195,276.72h-6.22l-9.74-14.19h-4.51v14.85h-5.09V242.62H179q6.69,0,9.65,2.51a9.2,9.2,0,0,1,3.28,7.38,9.6,9.6,0,0,1-2.06,6.16A9.14,9.14,0,0,1,184.47,262Zm-9.93-3.86h5.21q7.23,0,7.23-5.53,0-5.17-7-5.17h-5.41Z"/><path class="cls-1" d="M64.72,203v9.92q0,3.92-1.25,5.72a7.19,7.19,0,0,1-5.85,2.62,7.19,7.19,0,0,1-5.85-2.62q-1.25-1.8-1.25-5.72V203H46v11.18a11.5,11.5,0,0,0,2.77,8.14c2.18,2.3,5,3.22,8.82,3.22s6.64-.92,8.82-3.22a11.55,11.55,0,0,0,2.77-8.14V203Z"/><path class="cls-2" d="M171.06,121.13a76.5,76.5,0,0,0,0-76.57Z"/><path class="cls-3" d="M167.44,38.28A76.51,76.51,0,0,0,101.13,0Z"/><path class="cls-2" d="M93.88,0A76.51,76.51,0,0,0,27.57,38.28Z"/><path class="cls-3" d="M24,44.56a76.5,76.5,0,0,0,0,76.57Z"/><path class="cls-2" d="M27.57,127.41a76.57,76.57,0,0,0,66.31,38.28Z"/><path class="cls-3" d="M101.13,165.69a76.57,76.57,0,0,0,66.31-38.28Z"/><path class="cls-3" d="M143.53,106.8a47.84,47.84,0,0,0,0-47.91Z"/><path class="cls-2" d="M141.26,55A47.89,47.89,0,0,0,99.77,31Z"/><path class="cls-3" d="M95.24,31A47.89,47.89,0,0,0,53.75,55Z"/><path class="cls-2" d="M51.48,58.89a47.84,47.84,0,0,0,0,47.91Z"/><path class="cls-3" d="M53.75,110.73a47.85,47.85,0,0,0,41.49,24Z"/><path class="cls-2" d="M99.77,134.68a47.85,47.85,0,0,0,41.49-24Z"/><path class="cls-3" d="M143.53,106.8a47.84,47.84,0,0,0,0-47.91Z"/><path class="cls-2" d="M141.26,55A47.89,47.89,0,0,0,99.77,31Z"/><path class="cls-3" d="M95.24,31A47.89,47.89,0,0,0,53.75,55Z"/><path class="cls-2" d="M51.48,58.89a47.84,47.84,0,0,0,0,47.91Z"/><path class="cls-3" d="M53.75,110.73a47.85,47.85,0,0,0,41.49,24Z"/><path class="cls-2" d="M99.77,134.68a47.85,47.85,0,0,0,41.49-24Z"/><path class="cls-1" d="M56.83,297.17a2.56,2.56,0,0,0-2.41-1.52,2.21,2.21,0,0,0-2.31,2.16c0,1.2,1.24,1.76,2.18,2.18l.93.41c1.81.8,3.35,1.7,3.35,3.92a4.4,4.4,0,0,1-8.73.7l1.51-.42a2.89,2.89,0,0,0,2.8,2.59A2.8,2.8,0,0,0,57,304.47c0-1.63-1.27-2.18-2.57-2.77l-.85-.37c-1.63-.74-3-1.58-3-3.57a3.65,3.65,0,0,1,3.9-3.55,4,4,0,0,1,3.61,2.16Z"/><path class="cls-1" d="M66.83,308.39H65.28V294.45h2.29a5.84,5.84,0,0,1,3.46.74,3.85,3.85,0,0,1,1.57,3.18,3.89,3.89,0,0,1-1.33,3,5,5,0,0,1-3.31.93H66.83Zm0-7.55h1c1.72,0,3.18-.51,3.18-2.51,0-2.28-1.83-2.44-3.65-2.44h-.57Z"/><path class="cls-1" d="M79.25,304.43l-1.68,4h-1.7l6.43-14.61,6.27,14.61H86.85l-1.64-4Zm3-7L79.88,303H84.6Z"/><path class="cls-1" d="M95.34,308.39H93.78V294.45h2c2.65,0,5.1.7,5.1,3.84a3.64,3.64,0,0,1-3.49,3.85l4.44,6.25H99.94l-4.21-6.12h-.39Zm0-7.49h.48c1.76,0,3.53-.33,3.53-2.5s-1.68-2.51-3.55-2.51h-.46Z"/><path class="cls-1" d="M115.73,294.45h2.09l-6.55,6.49,6.77,7.45H115.9l-5.72-6.4-.38.39v6h-1.56V294.45h1.56v6Z"/><path class="cls-1" d="M125.53,307h3.85v1.44H124V294.45h1.56Z"/><path class="cls-1" d="M135.34,294.45h7.24v1.44H136.9V300h5.51v1.44H136.9V307h5.68v1.44h-7.24Z"/><circle class="cls-2" cx="27.67" cy="305.56" r="2.5"/><circle class="cls-2" cx="29.8" cy="292.12" r="1.25"/><polygon class="cls-3" points="20.42 295.3 20.42 292.56 18.05 291.19 15.68 292.56 15.68 295.3 18.05 296.67 20.42 295.3"/><polygon class="cls-3" points="37.53 300.1 37.53 298.73 36.34 298.04 35.16 298.73 35.16 300.1 36.34 300.78 37.53 300.1"/><circle class="cls-2" cx="165.23" cy="305.56" r="2.5"/><circle class="cls-2" cx="163.1" cy="292.12" r="1.25"/><polygon class="cls-3" points="172.48 295.3 172.48 292.56 174.85 291.19 177.22 292.56 177.22 295.3 174.85 296.67 172.48 295.3"/><polygon class="cls-3" points="155.37 300.1 155.37 298.73 156.56 298.04 157.74 298.73 157.74 300.1 156.56 300.78 155.37 300.1"/></svg>